<?xml version="1.0" encoding="UTF-8" standalone="no"?>
<svg
   xmlns:dc="http://purl.org/dc/elements/1.1/"
   xmlns:cc="http://creativecommons.org/ns#"
   xmlns:rdf="http://www.w3.org/1999/02/22-rdf-syntax-ns#"
   xmlns:svg="http://www.w3.org/2000/svg"
   xmlns="http://www.w3.org/2000/svg"
   xmlns:xlink="http://www.w3.org/1999/xlink"
   xmlns:sodipodi="http://sodipodi.sourceforge.net/DTD/sodipodi-0.dtd"
   xmlns:inkscape="http://www.inkscape.org/namespaces/inkscape"
   width="436.24875"
   height="618.24872"
   id="svg2985"
   version="1.1"
   inkscape:version="0.48.2 r9819"
   sodipodi:docname="switch--on.svg">
  <title
     id="title4005">Switched Off</title>
  <sodipodi:namedview
     pagecolor="#ffffff"
     bordercolor="#666666"
     borderopacity="1"
     objecttolerance="10"
     gridtolerance="10"
     guidetolerance="10"
     inkscape:pageopacity="0"
     inkscape:pageshadow="2"
     inkscape:window-width="1308"
     inkscape:window-height="866"
     id="namedview3022"
     showgrid="false"
     inkscape:zoom="0.79868887"
     inkscape:cx="447.63128"
     inkscape:cy="280.08376"
     inkscape:window-x="1736"
     inkscape:window-y="32"
     inkscape:window-maximized="0"
     inkscape:current-layer="svg2985"
     showguides="true"
     inkscape:guide-bbox="true"
     inkscape:snap-to-guides="false"
     inkscape:showpageshadow="false"
     fit-margin-top="0"
     fit-margin-left="0"
     fit-margin-right="0"
     fit-margin-bottom="0" />
  <defs
     id="defs2987">
    <linearGradient
       id="linearGradient3702">
      <stop
         stop-color="#ffffff"
         id="stop3704"
         offset="0" />
      <stop
         stop-color="#ffffff"
         stop-opacity="0"
         id="stop3706"
         offset="1" />
    </linearGradient>
    <linearGradient
       id="linearGradient3689">
      <stop
         stop-color="#ffffff"
         id="stop3691"
         offset="0" />
      <stop
         stop-color="#ffffff"
         stop-opacity="0.406977"
         id="stop3693"
         offset="1" />
    </linearGradient>
    <radialGradient
       gradientUnits="userSpaceOnUse"
       gradientTransform="matrix(1,0,0,1.33526,1492.43,612.979)"
       r="262.91968"
       fy="-451.07388"
       fx="-974.18964"
       cy="-450.32495"
       cx="-971.18964"
       id="radialGradient3695"
       xlink:href="#linearGradient3689" />
    <linearGradient
       y2="350.98944"
       x2="229.86606"
       y1="745.61945"
       x1="229.86606"
       id="linearGradient3708"
       xlink:href="#linearGradient3702"
       gradientTransform="scale(1.1690584,0.85538926)"
       gradientUnits="userSpaceOnUse" />
    <linearGradient
       y1="87.435646"
       x1="255.6684"
       y2="293.37497"
       x2="254.0596"
       id="svg_9"
       gradientTransform="scale(1.0245737,0.97601569)"
       gradientUnits="userSpaceOnUse">
      <stop
         offset="0"
         stop-opacity="0.996094"
         stop-color="#707070"
         id="stop2998" />
      <stop
         offset="1"
         stop-opacity="0.984375"
         stop-color="#4f4e4e"
         id="stop3000" />
    </linearGradient>
    <linearGradient
       inkscape:collect="always"
       xlink:href="#svg_9"
       id="linearGradient3076"
       gradientUnits="userSpaceOnUse"
       gradientTransform="matrix(1.0245737,0,0,0.97601569,492.05644,5.0082079)"
       x1="255.6684"
       y1="87.435646"
       x2="254.0596"
       y2="293.37497" />
    <radialGradient
       inkscape:collect="always"
       xlink:href="#linearGradient3689"
       id="radialGradient3088"
       gradientUnits="userSpaceOnUse"
       gradientTransform="matrix(1,0,0,1.33526,1492.43,612.979)"
       cx="-971.18964"
       cy="-450.32495"
       fx="-974.18964"
       fy="-451.07388"
       r="262.91968" />
    <linearGradient
       inkscape:collect="always"
       xlink:href="#linearGradient3702"
       id="linearGradient3090"
       gradientUnits="userSpaceOnUse"
       gradientTransform="scale(1.1690584,0.85538926)"
       x1="229.86606"
       y1="745.61945"
       x2="229.86606"
       y2="350.98944" />
    <linearGradient
       inkscape:collect="always"
       xlink:href="#linearGradient3702"
       id="linearGradient3093"
       gradientUnits="userSpaceOnUse"
       gradientTransform="matrix(-1.1690583,0,0,-0.85538926,485.38734,664.08199)"
       x1="229.86606"
       y1="745.61945"
       x2="229.86606"
       y2="350.98944" />
    <radialGradient
       inkscape:collect="always"
       xlink:href="#linearGradient3689"
       id="radialGradient3102"
       gradientUnits="userSpaceOnUse"
       gradientTransform="matrix(-1,0,0,-1.33526,-958.934,95.683)"
       cx="-971.18964"
       cy="-450.32495"
       fx="-974.18964"
       fy="-451.07388"
       r="262.91968" />
    <linearGradient
       inkscape:collect="always"
       xlink:href="#linearGradient3702-4"
       id="linearGradient3708-7"
       x1="-1223.7031"
       y1="90.15625"
       x2="-1223.7031"
       y2="-247.40625"
       gradientUnits="userSpaceOnUse"
       gradientTransform="translate(2029.5639,546.06445)" />
    <linearGradient
       inkscape:collect="always"
       id="linearGradient3702-4">
      <stop
         style="stop-color:#ffffff;stop-opacity:1;"
         offset="0"
         id="stop3704-0" />
      <stop
         style="stop-color:#ffffff;stop-opacity:0;"
         offset="1"
         id="stop3706-9" />
    </linearGradient>
    <linearGradient
       inkscape:collect="always"
       xlink:href="#linearGradient3702-5"
       id="linearGradient3708-5"
       x1="-1223.7031"
       y1="90.15625"
       x2="-1223.7031"
       y2="-247.40625"
       gradientUnits="userSpaceOnUse"
       gradientTransform="translate(1444.318,503.05762)" />
    <linearGradient
       inkscape:collect="always"
       id="linearGradient3702-5">
      <stop
         style="stop-color:#ffffff;stop-opacity:1;"
         offset="0"
         id="stop3704-1" />
      <stop
         style="stop-color:#ffffff;stop-opacity:0;"
         offset="1"
         id="stop3706-7" />
    </linearGradient>
  </defs>
  <metadata
     id="metadata7">image/svg+xml<rdf:RDF>
  <cc:Work
     rdf:about="">
    <dc:format>image/svg+xml</dc:format>
    <dc:type
       rdf:resource="http://purl.org/dc/dcmitype/StillImage" />
    <dc:title>Switched Off</dc:title>
    <dc:date>2013-07-08</dc:date>
    <dc:creator>
      <cc:Agent>
        <dc:title>Clemzo</dc:title>
      </cc:Agent>
    </dc:creator>
    <dc:rights>
      <cc:Agent>
        <dc:title>Public Domain</dc:title>
      </cc:Agent>
    </dc:rights>
    <dc:publisher>
      <cc:Agent>
        <dc:title>Open Clip Art Library</dc:title>
      </cc:Agent>
    </dc:publisher>
    <dc:source></dc:source>
    <dc:language>en GB</dc:language>
    <dc:subject>
      <rdf:Bag>
        <rdf:li>switch</rdf:li>
        <rdf:li>on</rdf:li>
        <rdf:li>off</rdf:li>
        <rdf:li>toggle</rdf:li>
        <rdf:li>power</rdf:li>
        <rdf:li>one</rdf:li>
        <rdf:li>zero</rdf:li>
        <rdf:li>click</rdf:li>
        <rdf:li>button</rdf:li>
        <rdf:li>plastic</rdf:li>
      </rdf:Bag>
    </dc:subject>
    <dc:description>A click switch (toggle switch) turned to the off position.</dc:description>
    <dc:contributor>
      <cc:Agent>
        <dc:title>Daniel Fowler</dc:title>
      </cc:Agent>
    </dc:contributor>
  </cc:Work>
</rdf:RDF>
</metadata>
  <g
     id="g4055">
    <rect
       rx="29.357635"
       ry="29.357635"
       y="4"
       x="4"
       height="610.24872"
       width="428.24875"
       id="rect3141"
       style="fill:#3c3c3c;fill-opacity:1;fill-rule:nonzero;stroke:#666666;stroke-width:8;stroke-linejoin:round;stroke-miterlimit:4;stroke-opacity:1;stroke-dasharray:none" />
    <rect
       id="svg_18"
       height="0"
       width="1"
       y="475.75848"
       x="-105.36066"
       style="fill:#4c4c4c;stroke:#666666;stroke-width:0" />
    <path
       sodipodi:nodetypes="ccczcccczcc"
       id="rect2818"
       d="m 75.189,26.285584 286.8976,0 c 8.864,0 16,7.136 16,16 0,0 35,158.739656 35,267.464566 0,108.72491 -35,267.46458 -35,267.46458 0,8.86399 -7.136,15.99999 -16,15.99999 l -286.8976,0 c -8.864,0 -16,-7.136 -16,-15.99999 0,0 -35,-158.73967 -35,-267.46458 0,-108.72491 35,-267.464566 35,-267.464566 0,-8.864 7.136,-16 16,-16 z"
       style="color:#000000;fill:#000000;fill-opacity:1;fill-rule:nonzero;stroke:none;stroke-width:10;marker:none;visibility:visible;display:inline;overflow:visible;enable-background:accumulate"
       inkscape:connector-curvature="0" />
    <path
       style="color:#000000;fill:#3c3c3c;fill-opacity:1;fill-rule:nonzero;stroke:none;stroke-width:10;marker:none;visibility:visible;display:inline;overflow:visible;enable-background:accumulate"
       d="m 75.189,160.5713 286.8976,0 c 8.864,0 11.9594,3.67797 16,12.21016 0,0 27,55.93691 27,135.49507 0,79.55816 -27,272.72804 -27,272.72804 0,6.76442 -7.136,12.21015 -16,12.21015 l -286.8976,0 c -8.864,0 -16,-5.44573 -16,-12.21015 0,0 -27,-193.16988 -27,-272.72804 0,-79.55816 27,-135.49507 27,-135.49507 0,-6.76442 7.136,-12.21016 16,-12.21016 z"
       id="path2821"
       sodipodi:nodetypes="ccczcccczcc"
       inkscape:connector-curvature="0" />
    <path
       transform="matrix(1.9616532,0,0,1.9616532,2592.2383,517.3925)"
       d="m -1168.5714,-19.066389 a 41.42857,42.857143 0 1 1 -82.8572,0 41.42857,42.857143 0 1 1 82.8572,0 z"
       sodipodi:ry="42.857143"
       sodipodi:rx="41.42857"
       sodipodi:cy="-19.066389"
       sodipodi:cx="-1210"
       id="path2825"
       style="color:#000000;fill:none;stroke:#ffffff;stroke-width:10;stroke-opacity:1;marker:none;visibility:visible;display:inline;overflow:visible;enable-background:accumulate"
       sodipodi:type="arc" />
    <rect
       ry="0"
       y="195.5759"
       x="208.83781"
       height="112.98637"
       width="21"
       id="rect2827"
       style="color:#000000;fill:#ffffff;fill-opacity:1;stroke:none;stroke-width:10;marker:none;visibility:visible;display:inline;overflow:visible;enable-background:accumulate" />
    <path
       sodipodi:nodetypes="ccccccccc"
       id="rect2829"
       d="m 72.6041,28.276584 290.8572,0 c 6.5105,0 11.4286,4.93146 11.4286,11.42857 l -6,107.142866 c 0,6.24859 -5.1867,11.42857 -11.4286,11.42857 l -278.8572,0 c -6.2419,0 -11.4285,-5.17998 -11.4285,-11.42857 l -6,-107.142866 c 0,-6.49711 4.918,-11.42857 11.4285,-11.42857 z"
       style="opacity:0.14200003;color:#000000;fill:#ffffff;fill-opacity:1;fill-rule:nonzero;stroke:none;stroke-width:10;marker:none;visibility:visible;display:inline;overflow:visible;enable-background:accumulate"
       inkscape:connector-curvature="0" />
    <path
       sodipodi:nodetypes="cccsssssccscc"
       id="path3679"
       d="m 376.28601,47.858874 c -1.62471,37.08596 -2.9052,70.911966 -4.44025,108.005446 0.40711,2.60223 0.42384,2.92959 1.82938,4.28571 7.47716,8.62091 13.98054,26.1677 17.46916,41.46967 0.005,0.022 0.0262,0.0405 0.0312,0.0625 0.006,0.0191 -0.006,0.0434 0,0.0625 17.86705,55.23179 18.44558,113.95871 12.875,170.96875 -8.5e-4,0.0103 8.5e-4,0.0209 0,0.0312 -3.62095,43.91877 -8.61344,87.69319 -14,131.40625 11.76765,-66.0023 20.80269,-132.49981 21.125,-199.46875 -10e-4,-0.0674 -10e-4,-0.0778 0,-0.0312 -1.93943,-87.50755 -16.45541,-171.01492 -33.80047,-256.762136 -0.15271,-0.86615 -1.02945,-0.76207 -1.08902,-0.0299 z"
       style="color:#000000;fill:#cccccf;fill-opacity:1;fill-rule:nonzero;stroke:none;stroke-width:10;marker:none;visibility:visible;display:inline;overflow:visible;enable-background:accumulate"
       inkscape:connector-curvature="0" />
    <path
       inkscape:connector-curvature="0"
       id="path3697"
       d="m 399.2242,323.65137 c -136.8251,0 -262.7571,22.68605 -362.8124,60.75 7.5919,87.90364 22.7812,196.59375 22.7812,196.59375 0,6.76443 7.136,12.21875 16,12.21875 l 286.9062,0 c 8.8641,0 16,-5.45432 16,-12.21875 0,0 23.8728,-170.78588 26.7188,-257.3125 -1.8664,-0.008 -3.7233,-0.0312 -5.5938,-0.0312 z"
       style="opacity:0.27906979;color:#000000;fill:url(#linearGradient3708-5);fill-opacity:1;fill-rule:nonzero;stroke:none;stroke-width:10;marker:none;visibility:visible;display:inline;overflow:visible;enable-background:accumulate" />
  </g>
</svg>
