<?xml version="1.0" encoding="UTF-8" standalone="no"?>
<svg
   xmlns:dc="http://purl.org/dc/elements/1.1/"
   xmlns:cc="http://creativecommons.org/ns#"
   xmlns:rdf="http://www.w3.org/1999/02/22-rdf-syntax-ns#"
   xmlns:svg="http://www.w3.org/2000/svg"
   xmlns="http://www.w3.org/2000/svg"
   xmlns:xlink="http://www.w3.org/1999/xlink"
   xmlns:sodipodi="http://sodipodi.sourceforge.net/DTD/sodipodi-0.dtd"
   xmlns:inkscape="http://www.inkscape.org/namespaces/inkscape"
   width="436.24875"
   height="618.24872"
   id="svg2985"
   version="1.1"
   inkscape:version="0.48.2 r9819"
   sodipodi:docname="switch--on.svg">
  <title
     id="title4005">Switched On</title>
  <sodipodi:namedview
     pagecolor="#ffffff"
     bordercolor="#666666"
     borderopacity="1"
     objecttolerance="10"
     gridtolerance="10"
     guidetolerance="10"
     inkscape:pageopacity="0"
     inkscape:pageshadow="2"
     inkscape:window-width="1308"
     inkscape:window-height="866"
     id="namedview3022"
     showgrid="false"
     inkscape:zoom="0.79868887"
     inkscape:cx="168.49627"
     inkscape:cy="280.08376"
     inkscape:window-x="112"
     inkscape:window-y="44"
     inkscape:window-maximized="0"
     inkscape:current-layer="svg2985"
     showguides="true"
     inkscape:guide-bbox="true"
     inkscape:snap-to-guides="false"
     inkscape:showpageshadow="false"
     fit-margin-top="0"
     fit-margin-left="0"
     fit-margin-right="0"
     fit-margin-bottom="0" />
  <defs
     id="defs2987">
    <linearGradient
       id="linearGradient3702">
      <stop
         stop-color="#ffffff"
         id="stop3704"
         offset="0" />
      <stop
         stop-color="#ffffff"
         stop-opacity="0"
         id="stop3706"
         offset="1" />
    </linearGradient>
    <linearGradient
       id="linearGradient3689">
      <stop
         stop-color="#ffffff"
         id="stop3691"
         offset="0" />
      <stop
         stop-color="#ffffff"
         stop-opacity="0.406977"
         id="stop3693"
         offset="1" />
    </linearGradient>
    <radialGradient
       gradientUnits="userSpaceOnUse"
       gradientTransform="matrix(1,0,0,1.33526,1492.43,612.979)"
       r="262.91968"
       fy="-451.07388"
       fx="-974.18964"
       cy="-450.32495"
       cx="-971.18964"
       id="radialGradient3695"
       xlink:href="#linearGradient3689" />
    <linearGradient
       y2="350.98944"
       x2="229.86606"
       y1="745.61945"
       x1="229.86606"
       id="linearGradient3708"
       xlink:href="#linearGradient3702"
       gradientTransform="scale(1.1690584,0.85538926)"
       gradientUnits="userSpaceOnUse" />
    <linearGradient
       y1="87.435646"
       x1="255.6684"
       y2="293.37497"
       x2="254.0596"
       id="svg_9"
       gradientTransform="scale(1.0245737,0.97601569)"
       gradientUnits="userSpaceOnUse">
      <stop
         offset="0"
         stop-opacity="0.996094"
         stop-color="#707070"
         id="stop2998" />
      <stop
         offset="1"
         stop-opacity="0.984375"
         stop-color="#4f4e4e"
         id="stop3000" />
    </linearGradient>
    <linearGradient
       inkscape:collect="always"
       xlink:href="#svg_9"
       id="linearGradient3076"
       gradientUnits="userSpaceOnUse"
       gradientTransform="matrix(1.0245737,0,0,0.97601569,492.05644,5.0082079)"
       x1="255.6684"
       y1="87.435646"
       x2="254.0596"
       y2="293.37497" />
    <radialGradient
       inkscape:collect="always"
       xlink:href="#linearGradient3689"
       id="radialGradient3088"
       gradientUnits="userSpaceOnUse"
       gradientTransform="matrix(1,0,0,1.33526,1492.43,612.979)"
       cx="-971.18964"
       cy="-450.32495"
       fx="-974.18964"
       fy="-451.07388"
       r="262.91968" />
    <linearGradient
       inkscape:collect="always"
       xlink:href="#linearGradient3702"
       id="linearGradient3090"
       gradientUnits="userSpaceOnUse"
       gradientTransform="scale(1.1690584,0.85538926)"
       x1="229.86606"
       y1="745.61945"
       x2="229.86606"
       y2="350.98944" />
    <linearGradient
       inkscape:collect="always"
       xlink:href="#linearGradient3702"
       id="linearGradient3093"
       gradientUnits="userSpaceOnUse"
       gradientTransform="matrix(-1.1690583,0,0,-0.85538926,485.38734,664.08199)"
       x1="229.86606"
       y1="745.61945"
       x2="229.86606"
       y2="350.98944" />
    <radialGradient
       inkscape:collect="always"
       xlink:href="#linearGradient3689"
       id="radialGradient3102"
       gradientUnits="userSpaceOnUse"
       gradientTransform="matrix(-1,0,0,-1.33526,-958.934,95.683)"
       cx="-971.18964"
       cy="-450.32495"
       fx="-974.18964"
       fy="-451.07388"
       r="262.91968" />
    <linearGradient
       inkscape:collect="always"
       xlink:href="#linearGradient3702-4"
       id="linearGradient3708-7"
       x1="-1223.7031"
       y1="90.15625"
       x2="-1223.7031"
       y2="-247.40625"
       gradientUnits="userSpaceOnUse"
       gradientTransform="translate(2029.5639,546.06445)" />
    <linearGradient
       inkscape:collect="always"
       id="linearGradient3702-4">
      <stop
         style="stop-color:#ffffff;stop-opacity:1;"
         offset="0"
         id="stop3704-0" />
      <stop
         style="stop-color:#ffffff;stop-opacity:0;"
         offset="1"
         id="stop3706-9" />
    </linearGradient>
  </defs>
  <metadata
     id="metadata7">image/svg+xml<rdf:RDF>
  <cc:Work
     rdf:about="">
    <dc:format>image/svg+xml</dc:format>
    <dc:type
       rdf:resource="http://purl.org/dc/dcmitype/StillImage" />
    <dc:title>Switched On</dc:title>
    <dc:date>2013-07-08</dc:date>
    <dc:creator>
      <cc:Agent>
        <dc:title>Clemzo</dc:title>
      </cc:Agent>
    </dc:creator>
    <dc:rights>
      <cc:Agent>
        <dc:title>Public Domain</dc:title>
      </cc:Agent>
    </dc:rights>
    <dc:publisher>
      <cc:Agent>
        <dc:title>Open Clip Art Library</dc:title>
      </cc:Agent>
    </dc:publisher>
    <dc:source />
    <dc:language>en GB</dc:language>
    <dc:subject>
      <rdf:Bag>
        <rdf:li>switch</rdf:li>
        <rdf:li>on</rdf:li>
        <rdf:li>off</rdf:li>
        <rdf:li>toggle</rdf:li>
        <rdf:li>power</rdf:li>
        <rdf:li>one</rdf:li>
        <rdf:li>zero</rdf:li>
        <rdf:li>click</rdf:li>
        <rdf:li>button</rdf:li>
        <rdf:li>plastic</rdf:li>
      </rdf:Bag>
    </dc:subject>
    <dc:description>A click switch (toggle switch) turned to the on position.</dc:description>
    <dc:contributor>
      <cc:Agent>
        <dc:title>Daniel Fowler</dc:title>
      </cc:Agent>
    </dc:contributor>
  </cc:Work>
</rdf:RDF>
</metadata>
  <g
     id="g4100">
    <rect
       rx="29.357635"
       ry="29.357635"
       y="4"
       x="4"
       height="610.24872"
       width="428.24875"
       id="rect3141"
       style="fill:#3c3c3c;fill-opacity:1;fill-rule:nonzero;stroke:#666666;stroke-width:8;stroke-linejoin:round;stroke-miterlimit:4;stroke-opacity:1;stroke-dasharray:none" />
    <path
       style="fill:#000000;fill-rule:nonzero;stroke-width:10"
       inkscape:connector-curvature="0"
       d="m 362.08673,593.21494 -286.897575,0 c -8.86402,0 -16,-7.13599 -16,-16 0,0 -35,-158.73966 -35,-267.46457 0,-108.72492 35,-267.464596 35,-267.464596 0,-8.86402 7.13598,-16 16,-16 l 286.897575,0 c 8.86401,0 16,7.13598 16,16 0,0 35,158.739706 35,267.464596 0,108.72491 -35,267.46457 -35,267.46457 0,8.86401 -7.13599,16 -16,16 z"
       id="rect2818" />
    <path
       style="fill:#3c3c3c;fill-rule:nonzero;stroke-width:10"
       inkscape:connector-curvature="0"
       id="path2821"
       d="m 362.08673,458.92923 -286.897575,0 c -8.86402,0 -11.95948,-3.67798 -16,-12.21017 0,0 -27,-55.93692 -27,-135.49509 0,-79.55814 27,-272.728056 27,-272.728056 0,-6.7644 7.13598,-12.21014 16,-12.21014 l 286.897575,0 c 8.86401,0 16,5.44574 16,12.21014 0,0 27,193.169916 27,272.728056 0,79.55817 -27,135.49509 -27,135.49509 0,6.76443 -7.13599,12.21017 -16,12.21017 z" />
    <path
       style="opacity:0.14200003;fill:#ffffff;fill-rule:nonzero;stroke-width:10"
       inkscape:connector-curvature="0"
       d="m 364.67169,591.22394 -290.857175,0 c -6.51049,0 -11.42858,-4.93146 -11.42858,-11.42856 l 6,-107.14288 c 0,-6.24857 5.18664,-11.42856 11.42858,-11.42856 l 278.857175,0 c 6.24195,0 11.42847,5.17999 11.42847,11.42856 l 6,107.14288 c 0,6.4971 -4.91797,11.42856 -11.42847,11.42856 z"
       id="rect2829" />
    <path
       inkscape:connector-curvature="0"
       style="opacity:0.27906997;fill:url(#linearGradient3093);fill-rule:nonzero;stroke-width:10"
       d="m 38.047325,295.84935 c 136.830065,0 262.759985,-22.686 362.820035,-60.75 -7.59998,-87.90341 -22.79004,-196.593528 -22.79004,-196.593528 0,-6.76441 -7.13,-12.21869 -16,-12.21869 l -286.899985,0 c -8.87,0 -16,5.45428 -16,12.21869 0,0 -23.87,170.785918 -26.71997,257.312528 1.86999,0.008 3.71997,0.031 5.58996,0.031 l 0,0 z"
       id="path3697" />
    <rect
       id="svg_15"
       height="126"
       width="21.000002"
       y="77.758568"
       x="207.62486"
       style="fill:#ffffff;stroke:#666666;stroke-width:0" />
    <rect
       id="svg_18"
       height="0"
       width="1"
       y="475.75848"
       x="-105.36066"
       style="fill:#4c4c4c;stroke:#666666;stroke-width:0" />
    <path
       style="fill:#cccccf;fill-rule:nonzero;stroke-width:10"
       inkscape:connector-curvature="0"
       d="m 374.57152,567.96606 c -1.62402,-37.086 -2.90503,-70.91199 -4.43994,-108.00501 0.40698,-2.60199 0.42395,-2.92999 1.82996,-4.28598 7.47693,-8.621 13.97998,-26.16702 17.46898,-41.46902 0.005,-0.022 0.026,-0.041 0.031,-0.063 0.006,-0.019 -0.006,-0.043 0,-0.062 17.86706,-55.232 18.44604,-113.95899 12.875,-170.969 -9.8e-4,-0.01 9.7e-4,-0.021 0,-0.031 -3.62097,-43.91919 -8.61304,-87.69361 -13.99999,-131.40665 11.76793,66.00235 20.80297,132.49966 21.12499,199.46866 -9.8e-4,0.068 -9.8e-4,0.078 0,0.031 -1.93897,87.508 -16.45496,171.01499 -33.80102,256.762 -0.15197,0.867 -1.02893,0.763 -1.08899,0.03 l 0,0 z"
       id="path3679-1" />
    <path
       transform="matrix(1.9616532,0,0,1.7786987,2591.7248,387.8144)"
       d="m -1168.5714,-19.066389 a 41.42857,42.857143 0 1 1 -82.8572,0 41.42857,42.857143 0 1 1 82.8572,0 z"
       sodipodi:ry="42.857143"
       sodipodi:rx="41.42857"
       sodipodi:cy="-19.066389"
       sodipodi:cx="-1210"
       id="path2825"
       style="color:#000000;fill:none;stroke:#ffffff;stroke-width:10;stroke-opacity:1;marker:none;visibility:visible;display:inline;overflow:visible;enable-background:accumulate"
       sodipodi:type="arc" />
  </g>
</svg>
